HIERARCHY
ROOT Hips
{
    OFFSET 0.000000 0.000000 0.000000
    CHANNELS 6 Xposition Yposition Zposition Zrotation Xrotation Yrotation
        JOINT Chest
        {
            OFFSET -0.000000 34.099812 -0.000000
            CHANNELS 3 Zrotation Xrotation Yrotation
            JOINT Neck
            {
                OFFSET -0.000000 25.785578 0.000000
                CHANNELS 3 Zrotation Xrotation Yrotation
                JOINT Head
                {
                    OFFSET -0.000000 11.061110 0.000000
                    CHANNELS 3 Zrotation Xrotation Yrotation
                    End Site
                    {
                        OFFSET -0.000000 17.094444 0.000000
                    }
                }
            }
            JOINT LeftCollar
            {
                OFFSET -0.000000 25.785578 0.000000
                CHANNELS 3 Zrotation Xrotation Yrotation
                JOINT LeftShoulder
                {
                    OFFSET 19.000000 -0.000000 0.000000
                    CHANNELS 3 Zrotation Xrotation Yrotation
                    JOINT LeftElbow
                    {
                        OFFSET 29.227484 0.000000 0.000000
                        CHANNELS 3 Zrotation Xrotation Yrotation
                        JOINT LeftWrist
                        {
                            OFFSET 22.377386 0.000000 0.000000
                            CHANNELS 3 Zrotation Xrotation Yrotation
                            End Site
                            {
                                OFFSET 0.000000 -15.083334 0.000000
                            }
                        }
                    }
                }
            }
            JOINT RightCollar
            {
                OFFSET -0.000000 25.785578 0.000000
                CHANNELS 3 Zrotation Xrotation Yrotation
                JOINT RightShoulder
                {
                    OFFSET -19.000000 0.000000 0.000000
                    CHANNELS 3 Zrotation Xrotation Yrotation
                    JOINT RightElbow
                    {
                        OFFSET -29.227484 0.000000 0.000000
                        CHANNELS 3 Zrotation Xrotation Yrotation
                        JOINT RightWrist
                        {
                            OFFSET -22.377386 0.000000 0.000000
                            CHANNELS 3 Zrotation Xrotation Yrotation
                            End Site
                            {
                                OFFSET -0.000000 -15.083334 0.000000
                            }
                        }
                    }
                }
            }
        }
    JOINT LeftHip
    {
        OFFSET 12.066666 0.000000 0.000000
        CHANNELS 3 Zrotation Xrotation Yrotation
        JOINT LeftKnee
        {
            OFFSET -0.000000 -38.619030 0.000000
            CHANNELS 3 Zrotation Xrotation Yrotation
            JOINT LeftAnkle
            {
                OFFSET -0.000000 -42.566540 0.000000
                CHANNELS 3 Zrotation Xrotation Yrotation
                End Site
                {
                    OFFSET -0.000000 -5.027778 17.094444
                }
            }
        }
    }
    JOINT RightHip
    {
        OFFSET -12.066666 0.000000 0.000000
        CHANNELS 3 Zrotation Xrotation Yrotation
        JOINT RightKnee
        {
            OFFSET -0.000000 -38.619030 0.000000
            CHANNELS 3 Zrotation Xrotation Yrotation
            JOINT RightAnkle
            {
                OFFSET -0.000000 -42.566540 0.000000
                CHANNELS 3 Zrotation Xrotation Yrotation
                End Site
                {
                    OFFSET -0.000000 -5.027778 17.094444
                }
            }
        }
    }
}
MOTION
Frames:    12
Frame Time:    0.010000
88.037231    91.664215    -30.616867    9.281412    14.574134    -75.527122    -3.685759    15.969810    8.316202    -22.583740    -0.098718    16.190500    2.883233    -9.598657    17.899429    -14.674609    -1.246797    9.812710    -36.590481    9.436096    -29.483395    15.168510    -16.227493    -94.008179    123.401962    -13.475831    -11.501653    29.574503    4.365069    16.534142    42.887310    33.067421    -13.746684    9.177598    -0.740176    -8.855974    -76.067688    15.293319    -8.627742    11.488842    -21.537785    2.258312    -5.082832    15.952536    1.303133    -4.018558    -10.848166    35.856621    9.134457    -5.595998    0.505060    -2.669706    13.421922    6.964199    7.446141    -1.837786    -13.519464    
87.973717    91.690125    -30.626211    9.312207    14.675535    -75.691139    -4.206553    15.706197    8.166233    -17.542452    4.035343    15.022340    -0.008214    -4.002763    14.348213    -13.788102    -0.910502    5.782253    -34.888340    11.206831    -28.320490    15.640141    -17.169928    -93.732475    123.999458    -13.270754    -13.764058    30.487083    4.115535    13.302550    43.702469    31.804890    -13.897055    9.731633    -0.781077    -8.723565    -79.311432    16.785799    -9.150378    11.654804    -21.626959    2.374953    -5.064928    16.176615    1.418713    -3.989145    -10.907687    35.771343    9.206532    -5.596849    0.654685    -2.631574    13.371273    7.034833    7.596574    -1.711386    -13.446405    
87.911148    91.689087    -30.636400    9.380727    14.774859    -75.855911    -4.300282    15.795237    8.084632    -17.683798    4.134958    15.192312    -0.169040    -4.734970    14.550144    -14.009737    -0.828164    6.015780    -34.260330    11.832579    -28.519051    16.510149    -18.139225    -92.713417    126.071190    -15.754581    -12.758780    30.404791    3.896621    13.588644    44.219193    31.197800    -15.222612    9.576356    -0.791415    -9.098613    -77.315506    16.243767    -7.339649    11.895428    -21.706264    2.437826    -5.236051    16.281528    1.506084    -3.908617    -10.915250    35.858795    9.295242    -5.674050    0.705197    -2.649724    13.362651    7.157646    7.575739    -1.596786    -13.465858    
87.870018    91.705574    -30.647335    9.410119    14.845013    -75.972687    -4.411752    15.894828    8.027628    -17.744272    4.100949    15.290590    -0.160741    -4.740047    14.648303    -14.101168    -0.793433    6.164886    -33.786087    12.332149    -28.680532    17.361059    -18.784664    -92.087311    127.616913    -16.222214    -12.480837    30.420807    3.796711    13.559907    44.430973    31.033663    -15.885489    9.588087    -0.748504    -9.308450    -77.504967    16.461618    -6.735580    12.052794    -21.752029    2.514916    -5.306378    16.390779    1.556205    -3.886418    -10.950983    35.884407    9.353395    -5.691479    0.776250    -2.642928    13.337226    7.220698    7.602331    -1.501961    -13.451027    
87.819603    91.723785    -30.661598    9.426403    14.920867    -76.096832    -4.539854    16.024534    7.962370    -17.779449    4.089582    15.395913    -0.188999    -4.803774    14.753356    -14.195484    -0.783811    6.273350    -33.320736    12.831716    -28.754637    18.151810    -19.323307    -91.428856    129.464157    -16.787699    -12.218902    30.436308    3.736091    13.478936    44.594608    30.876339    -16.497931    9.627971    -0.789839    -9.497958    -77.697014    16.688765    -6.024121    12.234943    -21.781864    2.621427    -5.386340    16.512222    1.583419    -3.872117    -11.001479    35.918224    9.422585    -5.685773    0.856138    -2.636886    13.298892    7.276994    7.628455    -1.393868    -13.428885    
87.759171    91.742203    -30.679024    9.425475    15.000573    -76.224266    -4.681420    16.188864    7.889553    -17.809597    4.081133    15.512524    -0.232241    -4.903071    14.868664    -14.291844    -0.794459    6.340317    -32.927387    13.261655    -28.717482    18.851711    -19.730581    -90.769661    131.550400    -17.446997    -11.969716    30.453920    3.690466    13.350329    44.730637    30.762102    -17.070644    9.674406    -0.832438    -9.691974    -77.891647    16.936338    -5.281124    12.438059    -21.789230    2.759929    -5.471726    16.641142    1.578869    -3.866714    -11.067065    35.960648    9.502915    -5.652152    0.943083    -2.632311    13.247727    7.322889    7.655209    -1.275956    -13.399226    
87.691444    91.760811    -30.698719    9.414275    15.084201    -76.356873    -4.835606    16.379503    7.812619    -17.832386    4.074697    15.637625    -0.288880    -5.037179    14.991621    -14.387220    -0.805062    6.347003    -32.661621    13.539501    -28.536095    19.393179    -19.922625    -90.154388    133.837372    -18.171667    -11.728225    30.476709    3.638340    13.172759    44.848885    30.709595    -17.599371    9.719819    -0.868666    -9.893023    -78.064003    17.184496    -4.526400    12.656448    -21.778625    2.924236    -5.558506    16.770699    1.546767    -3.869269    -11.145263    36.012329    9.592505    -5.602798    1.036979    -2.629371    13.192364    7.364688    7.684135    -1.155282    -13.366432    
87.621292    91.780540    -30.719292    9.406038    15.172508    -76.500046    -5.001746    16.582264    7.736392    -17.849564    4.064797    15.769528    -0.354073    -5.201985    15.121727    -14.479940    -0.815324    6.285359    -32.564266    13.620741    -28.191135    19.725750    -19.884565    -89.606171    136.187027    -19.003004    -11.516541    30.497732    3.589478    12.952193    44.961266    30.694263    -18.075253    9.737323    -0.836961    -10.126089    -78.198425    17.420465    -3.806359    12.882891    -21.760941    3.101965    -5.643142    16.892563    1.500663    -3.877721    -11.230828    36.073860    9.687316    -5.558753    1.138816    -2.626345    13.143982    7.409454    7.715614    -1.038166    -13.333717    
87.553955    91.802444    -30.739275    9.414248    15.265795    -76.659363    -5.179860    16.781483    7.666494    -17.859232    4.051078    15.905881    -0.426884    -5.392035    15.256111    -14.576345    -0.786032    6.156197    -32.625908    13.467720    -27.699833    19.791616    -19.557077    -89.131683    138.523895    -19.928110    -11.339932    30.514412    3.532403    12.695316    45.061684    30.707047    -18.482380    9.717196    -0.878274    -10.371385    -78.316505    17.640907    -3.007009    13.109897    -21.747915    3.279103    -5.722861    16.999107    1.457598    -3.889311    -11.317633    36.144344    9.781734    -5.539687    1.248023    -2.619566    13.109659    7.461492    7.748682    -0.926914    -13.301028    
87.493645    91.827232    -30.757490    9.449066    15.363570    -76.838745    -5.370627    16.963871    7.607966    -17.856722    4.032304    16.044292    -0.509920    -5.594867    15.392843    -14.677138    -0.768604    5.971345    -32.813751    13.179050    -27.089125    19.652937    -19.096979    -88.651863    140.602448    -21.055103    -11.209631    30.523394    3.461327    12.409962    45.156910    30.727970    -18.821354    9.667608    -0.909323    -10.630016    -78.433563    17.863758    -2.221453    13.330899    -21.748810    3.443918    -5.795641    17.084887    1.432528    -3.901263    -11.399609    36.221466    9.870157    -5.557993    1.361020    -2.605009    13.088872    7.519239    7.782291    -0.818332    -13.262786    
87.442871    91.855156    -30.773338    9.515815    15.464888    -77.039742    -5.574078    17.121988    7.564438    -17.837591    3.998803    16.183460    -0.608166    -5.784324    15.532300    -14.791894    -0.752258    5.748696    -33.063267    12.800686    -26.398766    19.335773    -18.450340    -88.100220    142.464798    -22.271984    -11.073312    30.519787    3.384800    12.104976    45.251270    30.732664    -19.091129    9.580176    -0.927574    -10.907872    -78.521698    18.076706    -1.447282    13.541633    -21.768938    3.587422    -5.860944    17.146868    1.436938    -3.910764    -11.471573    36.301666    9.948913    -5.617398    1.471202    -2.580836    13.075104    7.578321    7.815666    -0.706432    -13.209645    
87.402252    91.886009    -30.786890    9.615143    15.568954    -77.262451    -5.790270    17.253092    7.539403    -17.793377    3.943725    16.321638    -0.731301    -5.931025    15.673350    -14.927755    -0.725874    5.494354    -33.327686    12.361862    -25.673584    18.851793    -17.625320    -87.403633    144.127075    -23.537470    -10.919984    30.504887    3.295867    11.783545    45.342670    30.726656    -19.291594    9.480056    -0.936537    -11.183305    -78.564430    18.296709    -0.710869    13.741152    -21.809687    3.704132    -5.919858    17.184744    1.479267    -3.915515    -11.529861    36.379978    10.017359    -5.715038    1.571845    -2.548108    13.060497    7.635485    7.848683    -0.585737    -13.133195    
